<svg width="350" height="377" viewBox="0 0 350 377" fill="none" xmlns="http://www.w3.org/2000/svg">
<g clip-path="url(#clip0_161_2885)">
<path d="M10.0527 344.086C26.7513 326.357 64.0744 292.241 120.067 283.298C163.899 276.296 232.614 282.579 244.437 315.911C251.75 336.531 244.437 361.146 223.179 365.841C206.556 369.511 185.066 359.277 181.89 338.843C170.866 267.897 274.808 224.939 324.697 218.007" stroke="black" stroke-width="20.1067" stroke-linecap="round" stroke-linejoin="round"/>
<path d="M245.759 209.989C263.473 198.881 291.944 185.399 326.356 187.636C330.755 187.922 334.982 188.445 339.019 189.159" stroke="black" stroke-width="20.1067" stroke-linecap="round" stroke-linejoin="round"/>
<path d="M32.4718 149.403C114.206 98.4523 200.101 55.8312 288.179 10.0532C288.179 10.0532 257.612 134.876 254.686 176.125L167.75 157.104C152.976 178.361 138.203 238.968 138.203 238.968C138.203 238.968 117.634 157.104 111.114 154.852C108.103 153.811 32.4668 149.403 32.4668 149.403H32.4718Z" stroke="black" stroke-width="20.1067" stroke-linecap="round" stroke-linejoin="round"/>
<path d="M111.119 154.852C114.869 145.914 238.209 69.6899 238.209 69.6899C238.209 69.6899 174.46 150.222 167.755 157.104" stroke="black" stroke-width="20.1067" stroke-linecap="round" stroke-linejoin="round"/>
<path d="M198.498 163.83C179.311 181.252 138.666 240.783 138.666 240.783" stroke="black" stroke-width="20.1067" stroke-linecap="round" stroke-linejoin="round"/>
</g>
<defs>
<clipPath id="clip0_161_2885">
<rect width="349.072" height="376.629" fill="white"/>
</clipPath>
</defs>
</svg>
