<svg id="Ebene_1" data-name="Ebene 1" xmlns="http://www.w3.org/2000/svg" viewBox="0 0 222.42 58.96"><defs><style>.cls-1{fill:#fff;}.cls-2{fill:#1d1d1b;}</style></defs><path class="cls-1" d="M52,58a11.17,11.17,0,0,1-2.08-22.15C67.93,32.41,86.71,28.66,104,25c-27.86.55-58.21,2.31-90.83,5.27A11.18,11.18,0,1,1,11.15,8c63.48-5.77,118.7-7,164.12-3.79C187.38,5.11,189.58,12,189.82,16c.54,9.42-8.74,12.77-12.71,14.2-3.62,1.31-8.61,2.79-15.26,4.53l-.2.06,50.49-.41h.09a11.18,11.18,0,0,1,.09,22.35L52.05,58Z" transform="translate(-0.98 -0.79)"/><path class="cls-2" d="M49.1,59.75C31,59.75,18.56,47,18.56,29.29,18.56,17.61,24,8.06,32.85,3L40,16.22a14.45,14.45,0,0,0-7.51,13.07c0,8.82,6.61,15.27,16.66,15.27,9.88,0,16.66-5.72,16.66-15.27,0-5.47-2.29-11.27-8.41-13.64v13h-12V.79H78.42V12.55H72.13c4.33,3.67,7.51,9.31,7.51,17.64C79.64,47.42,67.23,59.75,49.1,59.75Z" transform="translate(-0.98 -0.79)"/><path class="cls-2" d="M86.44,10.14A8,8,0,0,1,101.25,5.9L97.8,7.75a3.76,3.76,0,0,0-3.41-2c-2.3,0-4,1.73-4,4.35s1.5,4.35,4,4.35A3.6,3.6,0,0,0,98,12.29H94.56V9.16h7.27v8.63H98.76V16.15a5.74,5.74,0,0,1-4.6,2C89.66,18.11,86.44,14.87,86.44,10.14Z" transform="translate(-0.98 -0.79)"/><path class="cls-2" d="M103.58,12.29c0-3.64,2.43-5.73,6-5.73,3.22,0,5.65,1.64,5.67,5.6l0,.88h-7.89a2.2,2.2,0,0,0,2.37,2,1.88,1.88,0,0,0,1.94-1.17l3.49.45c-.68,2.36-2.77,3.66-5.41,3.66C105.92,18,103.58,15.91,103.58,12.29Zm8-1.53a1.83,1.83,0,0,0-1.92-1.43,2,2,0,0,0-2.17,1.43Z" transform="translate(-0.98 -0.79)"/><path class="cls-2" d="M116.5,14.93l3.13-.87a2,2,0,0,0,2,1.17c.73,0,1.13-.25,1.13-.7s-.55-.7-2-1c-2.39-.49-4-1.39-4-3.5s1.88-3.47,4.71-3.47c2.16,0,4.25.74,4.86,2.83l-3.3.75a1.89,1.89,0,0,0-1.71-1c-.55,0-.87.23-.87.59s.45.64,1.88,1c2.73.62,4.24,1.41,4.24,3.41,0,2.9-2.41,3.9-5,3.9S116.88,17,116.5,14.93Z" transform="translate(-0.98 -0.79)"/><path class="cls-2" d="M128.31,14.19V6.77h3.79v6.61A1.52,1.52,0,0,0,133.83,15c1.13,0,2.26-.47,2.28-2.48V6.77h3.79v11h-3.58l-.15-1.19a4.79,4.79,0,0,1-3.58,1.4C129.71,18,128.31,16.6,128.31,14.19Z" transform="translate(-0.98 -0.79)"/><path class="cls-2" d="M148.3,9.54A2.07,2.07,0,0,0,146,11.63v6.16h-3.79v-11h3.58L146,7.94a4.75,4.75,0,0,1,3.56-1.38c2.88,0,4.28,1.4,4.28,3.81v7.42H150V11.18A1.53,1.53,0,0,0,148.3,9.54Z" transform="translate(-0.98 -0.79)"/><path class="cls-2" d="M155.57,12.31c0-3.66,2.45-5.75,5.4-5.75A3.92,3.92,0,0,1,164,7.71V1.8h3.8v16h-3.58l-.13-1A3.91,3.91,0,0,1,161,18C158,18,155.57,16,155.57,12.31Zm6.23,2.58a2.33,2.33,0,0,0,2.41-2.58,2.43,2.43,0,1,0-4.84,0A2.34,2.34,0,0,0,161.8,14.89Z" transform="translate(-0.98 -0.79)"/><path class="cls-2" d="M176.21,9.54c-1,0-2.22.38-2.24,2.49v5.76h-3.8V1.8H174V8.05a4.88,4.88,0,0,1,3.73-1.49c2.64,0,4.07,1.4,4.07,4.24v7H178V11.4C178,10,177.19,9.54,176.21,9.54Z" transform="translate(-0.98 -0.79)"/><path class="cls-2" d="M183.48,12.29c0-3.64,2.43-5.73,6-5.73,3.22,0,5.65,1.64,5.67,5.6l0,.88h-7.89a2.2,2.2,0,0,0,2.36,2,1.88,1.88,0,0,0,1.94-1.17l3.5.45c-.68,2.36-2.77,3.66-5.41,3.66C185.82,18,183.48,15.91,183.48,12.29Zm8-1.53a1.84,1.84,0,0,0-1.92-1.43,2,2,0,0,0-2.18,1.43Z" transform="translate(-0.98 -0.79)"/><path class="cls-2" d="M198.91,1.59a2.06,2.06,0,1,1-2.09,2.05A2.07,2.07,0,0,1,198.91,1.59ZM197,6.77h3.8v11H197Z" transform="translate(-0.98 -0.79)"/><path class="cls-2" d="M204.2,14.08V9.65h-2.11V6.77h.61c1.18,0,2-.43,2-2.35V3.29H208V6.77h2.18V9.65H208v3.86c0,.93.45,1.3,1.19,1.3h1v3h-2.35C205.48,17.79,204.2,16.45,204.2,14.08Z" transform="translate(-0.98 -0.79)"/><path class="cls-2" d="M211.55,14.93l3.14-.87a2,2,0,0,0,2,1.17c.72,0,1.13-.25,1.13-.7s-.56-.7-2-1c-2.39-.49-4-1.39-4-3.5s1.87-3.47,4.71-3.47c2.15,0,4.24.74,4.86,2.83l-3.31.75a1.88,1.88,0,0,0-1.7-1c-.55,0-.87.23-.87.59s.44.64,1.87,1c2.73.62,4.24,1.41,4.24,3.41,0,2.9-2.41,3.9-5,3.9S211.94,17,211.55,14.93Z" transform="translate(-0.98 -0.79)"/><path class="cls-2" d="M92,31.53h-1v6.16h-4V22.39h4v5.73H92l4.48-5.73h4.6l-5.73,7.16v0l6,8.1h-5Z" transform="translate(-0.98 -0.79)"/><path class="cls-2" d="M101.15,32.17c0-3.6,2.58-5.69,6.29-5.71s6.29,2.11,6.29,5.71-2.58,5.71-6.29,5.73S101.15,35.79,101.15,32.17Zm6.29,2.75a2.47,2.47,0,0,0,2.49-2.75,2.51,2.51,0,1,0-5,0A2.47,2.47,0,0,0,107.44,34.92Z" transform="translate(-0.98 -0.79)"/><path class="cls-2" d="M115.54,21.7h3.79v16h-3.79Z" transform="translate(-0.98 -0.79)"/><path class="cls-2" d="M121.63,21.7h3.8v16h-3.8Z" transform="translate(-0.98 -0.79)"/><path class="cls-2" d="M127.24,32.19c0-3.64,2.43-5.73,6-5.73,3.22,0,5.65,1.64,5.67,5.6l0,.88H131a2.2,2.2,0,0,0,2.37,2,1.88,1.88,0,0,0,1.94-1.17l3.49.45c-.68,2.36-2.77,3.66-5.41,3.66C129.59,37.9,127.24,35.82,127.24,32.19Zm8-1.53a1.83,1.83,0,0,0-1.92-1.43,2,2,0,0,0-2.17,1.43Z" transform="translate(-0.98 -0.79)"/><path class="cls-2" d="M145.06,33.36h-.47v4.33H140.8v-16h3.79v9.11H145l3.22-4.14h4.35L148.28,32l4.5,5.73h-4.54Z" transform="translate(-0.98 -0.79)"/><path class="cls-2" d="M155.59,34V29.55h-2.11V26.67h.62c1.17,0,2-.43,2-2.34V23.2h3.33v3.47h2.17v2.88h-2.17v3.86c0,.93.45,1.3,1.19,1.3h1v3h-2.34C156.87,37.69,155.59,36.35,155.59,34Z" transform="translate(-0.98 -0.79)"/><path class="cls-2" d="M165.46,21.49a2.06,2.06,0,1,1-2.09,2.05A2.07,2.07,0,0,1,165.46,21.49Zm-1.91,5.18h3.79v11h-3.79Z" transform="translate(-0.98 -0.79)"/><path class="cls-2" d="M168.53,26.67h4.14l2.3,6.5,2.3-6.5h4.14l-4.76,11h-3.36Z" transform="translate(-0.98 -0.79)"/><path class="cls-2" d="M87.1,42.29h5.16c3.6,0,5.5,1.34,5.5,3.92A3.28,3.28,0,0,1,96,49.37a3.67,3.67,0,0,1,2.77,3.83c0,4.39-4.48,4.39-6,4.39H87.1Zm5.07,6c1.09,0,1.62-.45,1.62-1.35s-.55-1.36-1.62-1.36h-1.1v2.71Zm.66,6c1.35,0,1.92-.45,1.92-1.52s-.57-1.51-1.92-1.51H91.07v3Z" transform="translate(-0.98 -0.79)"/><path class="cls-2" d="M100,52.09c0-3.64,2.43-5.73,6-5.73,3.22,0,5.65,1.64,5.67,5.61l0,.87h-7.89a2.21,2.21,0,0,0,2.37,2,1.89,1.89,0,0,0,1.94-1.18l3.49.45c-.68,2.37-2.77,3.67-5.41,3.67C102.36,57.81,100,55.72,100,52.09Zm8-1.53a1.83,1.83,0,0,0-1.92-1.43,2,2,0,0,0-2.17,1.43Z" transform="translate(-0.98 -0.79)"/><path class="cls-2" d="M113.58,46.57h3.79v1.32a4.26,4.26,0,0,1,3.45-1.53v3.52c-2.45,0-3.45.53-3.45,2.77v4.94h-3.79Z" transform="translate(-0.98 -0.79)"/><path class="cls-2" d="M122.23,41.61H126v16h-3.8Z" transform="translate(-0.98 -0.79)"/><path class="cls-2" d="M130.25,41.39a2.06,2.06,0,0,1,0,4.12,2.06,2.06,0,1,1,0-4.12Zm-1.92,5.18h3.79v11h-3.79Z" transform="translate(-0.98 -0.79)"/><path class="cls-2" d="M140.48,49.34a2.06,2.06,0,0,0-2.26,2.09v6.16h-3.79v-11H138l.15,1.18a4.7,4.7,0,0,1,3.56-1.39c2.87,0,4.28,1.41,4.28,3.82v7.41h-3.79V51A1.54,1.54,0,0,0,140.48,49.34Z" transform="translate(-0.98 -0.79)"/></svg>