<svg width="236" height="255" viewBox="0 0 236 255" fill="none" xmlns="http://www.w3.org/2000/svg">
<path d="M6.79688 232.967C18.0864 220.963 43.3197 197.865 81.1747 191.81C110.809 187.069 157.265 191.324 165.258 213.891C170.203 227.852 165.258 244.518 150.887 247.697C139.648 250.181 125.12 243.252 122.972 229.417C115.519 181.382 185.792 152.297 219.521 147.604" stroke="black" stroke-width="10" stroke-linecap="round" stroke-linejoin="round"/>
<path d="M166.152 142.176C178.128 134.654 197.377 125.526 220.643 127.041C223.616 127.235 226.474 127.589 229.203 128.072" stroke="black" stroke-width="10" stroke-linecap="round" stroke-linejoin="round"/>
<path d="M21.9541 101.155C77.2124 66.6581 135.285 37.801 194.832 6.80664C194.832 6.80664 174.166 91.3188 172.188 119.247L113.412 106.368C103.424 120.761 93.4365 161.796 93.4365 161.796C93.4365 161.796 79.5301 106.368 75.1224 104.844C73.0867 104.139 21.9507 101.155 21.9507 101.155H21.9541Z" stroke="black" stroke-width="10" stroke-linecap="round" stroke-linejoin="round"/>
<path d="M75.1255 104.844C77.6607 98.7931 161.048 47.1846 161.048 47.1846C161.048 47.1846 117.949 101.71 113.416 106.369" stroke="black" stroke-width="10" stroke-linecap="round" stroke-linejoin="round"/>
<path d="M134.2 110.922C121.229 122.718 93.749 163.024 93.749 163.024" stroke="black" stroke-width="10" stroke-linecap="round" stroke-linejoin="round"/>
</svg>
