<svg width="300" height="121" viewBox="0 0 300 121" fill="none" xmlns="http://www.w3.org/2000/svg">
<path d="M98.8485 8.33076C74.1679 2.28335 16.3151 4.18576 6.0352 17.8072C-0.73526 26.7784 1.67413 37.54 13.3958 37.9228C23.8738 38.2649 23.6266 51.9102 23.6266 51.9102C23.6266 51.9102 31.2097 41.3721 35.2413 38.595C42.7003 33.457 79.905 33.328 93.357 32.7114C113.367 31.7942 119.918 13.4934 98.8485 8.33076Z" stroke="black" stroke-width="2.95182" stroke-linejoin="round"/>
<path d="M18.513 25.6683H20.5283L22.0644 20.9894L23.6147 25.6683H25.6159L28.1104 18.5654H26.0387L24.5307 23.3289L22.8537 18.5654H21.2752L19.5981 23.3007L18.0902 18.5654H16.0185L18.513 25.6683ZM29.3175 25.6683H31.2764V18.5654H29.3175V25.6683ZM29.1765 16.3386C29.1765 16.9728 29.6839 17.4661 30.3181 17.4661C30.9241 17.4661 31.4315 16.9728 31.4315 16.3386C31.4315 15.7185 30.9241 15.2253 30.3181 15.2253C29.6839 15.2253 29.1765 15.7185 29.1765 16.3386ZM33.1197 25.6683H35.0786V15.0984H33.1197V25.6683ZM36.9353 25.6683H38.8942V15.0984H36.9353V25.6683ZM45.5426 25.6683H47.8962L44.8098 21.9477L47.727 18.5654H45.458L43.0763 21.3417H42.7099V15.0984H40.7509V25.6683H42.7099V22.6806H43.1045L45.5426 25.6683ZM52.0958 25.8093C54.393 25.7952 55.9996 24.3999 55.9996 22.1028C55.9996 19.8338 54.393 18.4385 52.0958 18.4244C49.8127 18.4385 48.2061 19.8338 48.2061 22.1028C48.2061 24.3999 49.8127 25.7952 52.0958 25.8093ZM50.151 22.1028C50.151 20.8485 50.9261 19.9747 52.0958 19.9747C53.2656 19.9747 54.0407 20.8485 54.0407 22.1028C54.0407 23.3852 53.2656 24.259 52.0958 24.259C50.9261 24.259 50.151 23.3852 50.151 22.1028ZM66.6249 21.1867V25.6683H68.5698V20.5243C68.5698 19.2137 67.6537 18.4244 66.1176 18.4244C65.1169 18.4244 64.3277 18.8613 63.8626 19.6364C63.5244 18.8613 62.7211 18.4244 61.5655 18.4244C60.6494 18.4244 59.9166 18.7909 59.4515 19.4391L59.3669 18.5654H57.5207V25.6683H59.4797V21.7645C59.4797 20.4257 60.128 19.9747 60.8749 19.9747C61.5514 19.9747 62.0728 20.3834 62.0728 21.1867V25.6683H64.0318V21.7645C64.0318 20.4116 64.6801 19.9747 65.427 19.9747C66.1035 19.9747 66.6249 20.3693 66.6249 21.1867ZM79.4828 21.1867V25.6683H81.4276V20.5243C81.4276 19.2137 80.5116 18.4244 78.9754 18.4244C77.9748 18.4244 77.1856 18.8613 76.7205 19.6364C76.3822 18.8613 75.5789 18.4244 74.4233 18.4244C73.5072 18.4244 72.7744 18.7909 72.3093 19.4391L72.2248 18.5654H70.3785V25.6683H72.3375V21.7645C72.3375 20.4257 72.9858 19.9747 73.7327 19.9747C74.4092 19.9747 74.9306 20.3834 74.9306 21.1867V25.6683H76.8896V21.7645C76.8896 20.4116 77.5379 19.9747 78.2848 19.9747C78.9613 19.9747 79.4828 20.3693 79.4828 21.1867ZM86.7456 25.8093C88.3663 25.8093 89.6488 24.9919 90.1139 23.5403L88.324 23.3007C88.0422 23.949 87.4784 24.2731 86.7315 24.2731C85.7168 24.2731 84.9417 23.653 84.843 22.5115H90.2407L90.2689 22.0605C90.2548 19.5942 88.7186 18.4244 86.6751 18.4244C84.4484 18.4244 82.9122 19.8197 82.9122 22.1169C82.9122 24.414 84.4061 25.8093 86.7456 25.8093ZM84.9276 21.1585C85.139 20.2988 85.7591 19.8619 86.6892 19.8619C87.5066 19.8619 88.1408 20.3411 88.3099 21.1585H84.9276ZM96.7748 21.3276V25.6683H98.7196V20.9189C98.7196 19.3405 97.8177 18.4244 96.0278 18.4244C95.0413 18.4244 94.238 18.7909 93.7306 19.411L93.6602 18.5654H91.814V25.6683H93.7729V21.5249C93.8857 20.3834 94.5903 19.9747 95.4077 19.9747C96.1829 19.9747 96.7748 20.3834 96.7748 21.3276Z" fill="black"/>
<path d="M150.285 87.3163C131.137 87.3163 121.321 84.9696 118.164 83.7942C119.9 86.4388 131.296 94.6735 132.054 98.5523C133.001 103.401 135.212 108.927 144.208 111.131C153.204 113.335 167.178 110.691 204.108 111.131C233.625 111.484 230.309 99.5546 223.207 90.7392C216.105 81.9238 171.988 87.3163 150.285 87.3163Z" stroke="black" stroke-width="2.95182" stroke-linejoin="round"/>
<path d="M151.516 102.977C153.419 102.977 154.969 101.61 154.969 99.2991C154.969 96.9878 153.419 95.5926 151.516 95.5926C150.558 95.5926 149.727 95.9449 149.29 96.5932V92.2666H147.331V102.836H149.177L149.247 101.935C149.67 102.611 150.53 102.977 151.516 102.977ZM149.205 99.2991C149.205 98.0025 150.009 97.1992 151.108 97.1992C152.193 97.1992 153.01 98.0025 153.01 99.2991C153.01 100.596 152.193 101.357 151.108 101.357C150.009 101.357 149.205 100.596 149.205 99.2991ZM159.135 102.977C160.122 102.977 160.925 102.597 161.418 101.977L161.503 102.836H163.349V95.7335H161.39V99.5951C161.376 100.948 160.615 101.413 159.741 101.413C158.966 101.413 158.374 101.018 158.374 100.074V95.7335H156.429V100.483C156.429 102.047 157.345 102.977 159.135 102.977ZM170.19 98.4958V102.836H172.134V98.0871C172.134 96.5086 171.233 95.5926 169.443 95.5926C168.456 95.5926 167.653 95.959 167.146 96.5791L167.075 95.7335H165.229V102.836H167.188V98.6931C167.301 97.5515 168.005 97.1428 168.823 97.1428C169.598 97.1428 170.19 97.5515 170.19 98.4958ZM180.114 102.836H181.861L184.891 95.7335H182.763L180.987 100.525L179.198 95.7335H177.084L180.114 102.836ZM189.268 102.977C190.889 102.977 192.172 102.16 192.637 100.708L190.847 100.469C190.565 101.117 190.001 101.441 189.254 101.441C188.24 101.441 187.464 100.821 187.366 99.6796H192.764L192.792 99.2286C192.778 96.7623 191.241 95.5926 189.198 95.5926C186.971 95.5926 185.435 96.9878 185.435 99.285C185.435 101.582 186.929 102.977 189.268 102.977ZM187.45 98.3267C187.662 97.467 188.282 97.0301 189.212 97.0301C190.029 97.0301 190.664 97.5093 190.833 98.3267H187.45ZM199.298 98.4958V102.836H201.242V98.0871C201.242 96.5086 200.34 95.5926 198.551 95.5926C197.564 95.5926 196.761 95.959 196.253 96.5791L196.183 95.7335H194.337V102.836H196.296V98.6931C196.408 97.5515 197.113 97.1428 197.931 97.1428C198.706 97.1428 199.298 97.5515 199.298 98.4958ZM203.038 102.836H204.997V95.7335H203.038V102.836ZM202.897 93.5068C202.897 94.141 203.404 94.6342 204.039 94.6342C204.645 94.6342 205.152 94.141 205.152 93.5068C205.152 92.8867 204.645 92.3934 204.039 92.3934C203.404 92.3934 202.897 92.8867 202.897 93.5068ZM209.828 102.836H211.139V101.286H210.504C209.955 101.286 209.602 100.99 209.602 100.314V97.2274H211.139V95.7335H209.602V93.4504H207.883V94.4651C207.883 95.4798 207.446 95.7335 206.798 95.7335H206.248V97.2274H207.643V100.596C207.643 102.019 208.433 102.836 209.828 102.836Z" fill="black"/>
<path d="M225.179 10.3237C201.91 1.02826 159.618 6.27282 149.365 8.87553C141.471 10.8796 138.264 15.9229 137.48 21.3761C137.217 23.207 133.139 27.409 126.876 30.643C110.342 39.1801 142.71 33.5902 146.416 35.4451C151.427 37.9523 189.547 37.8479 218.173 36.063C234.424 35.0496 239.427 33.0432 239.427 21.3761C239.066 18.3489 235.562 14.4712 225.179 10.3237Z" stroke="black" stroke-width="2.95182" stroke-linejoin="round"/>
<path d="M155.309 22.8636V27.1057H157.268V22.5676C157.268 20.7778 156.338 19.8618 154.675 19.8618C153.632 19.8618 152.828 20.2564 152.307 20.8906V16.5358H150.348V27.1057H152.307V23.2441C152.307 21.8348 153.138 21.412 153.928 21.412C154.745 21.412 155.309 21.8207 155.309 22.8636ZM162.629 27.2466C164.926 27.2325 166.533 25.8373 166.533 23.5401C166.533 21.2711 164.926 19.8758 162.629 19.8618C160.346 19.8758 158.739 21.2711 158.739 23.5401C158.739 25.8373 160.346 27.2325 162.629 27.2466ZM160.684 23.5401C160.684 22.2858 161.459 21.412 162.629 21.412C163.798 21.412 164.574 22.2858 164.574 23.5401C164.574 24.8226 163.798 25.6963 162.629 25.6963C161.459 25.6963 160.684 24.8226 160.684 23.5401ZM170.929 30.3753C171.845 30.3753 172.423 29.7975 172.423 29.0646C172.423 28.4022 171.972 27.9512 171.267 27.9512C171.154 27.9512 171.041 27.9653 170.915 27.9935L171.408 27.2184C172.761 27.0634 173.846 26.3446 173.846 24.8507C173.846 23.526 172.803 23.0609 171.196 22.7086C170.238 22.4972 169.787 22.3422 169.787 21.863C169.787 21.4684 170.125 21.2147 170.675 21.2147C171.239 21.2147 171.788 21.4966 172 22.0744L173.705 21.6939C173.367 20.3973 172.112 19.8618 170.745 19.8618C169.026 19.8618 167.885 20.6651 167.885 22.018C167.885 23.371 168.97 23.8924 170.407 24.1743C171.394 24.3716 171.887 24.5266 171.887 25.0621C171.887 25.5131 171.506 25.795 170.858 25.795C170.168 25.795 169.562 25.4567 169.336 24.7944L167.715 25.2454C167.927 26.4292 168.984 27.1057 170.379 27.2325L169.688 28.4022L170.393 28.7405C170.534 28.6277 170.689 28.5573 170.872 28.5573C171.154 28.5573 171.408 28.7264 171.408 29.0646C171.408 29.3887 171.168 29.5861 170.844 29.5861C170.464 29.5861 170.154 29.4451 169.928 29.2619L169.491 29.9666C169.787 30.2062 170.309 30.3753 170.929 30.3753ZM178.831 30.629C181.086 30.629 182.523 29.5297 182.523 26.9224V20.0027H180.677L180.606 20.961C180.226 20.3127 179.408 19.8618 178.38 19.8618C176.562 19.8618 175.096 21.2288 175.096 23.371C175.096 25.5272 176.562 26.9224 178.351 26.9224C179.338 26.9224 180.184 26.4996 180.578 25.9077V27.0775C180.578 28.3177 180.043 29.121 178.746 29.121C177.802 29.121 177.21 28.6559 176.801 27.7398L175.166 28.4163C175.674 29.7411 176.787 30.629 178.831 30.629ZM176.97 23.371C176.97 22.2294 177.745 21.3979 178.831 21.3979C179.916 21.3979 180.691 22.2294 180.691 23.371C180.691 24.5266 179.902 25.3581 178.831 25.3581C177.76 25.3581 176.97 24.5266 176.97 23.371ZM187.892 27.2466C189.513 27.2466 190.795 26.4292 191.261 24.9776L189.471 24.738C189.189 25.3863 188.625 25.7104 187.878 25.7104C186.863 25.7104 186.088 25.0903 185.99 23.9488H191.387L191.416 23.4978C191.401 21.0315 189.865 19.8618 187.822 19.8618C185.595 19.8618 184.059 21.257 184.059 23.5542C184.059 25.8514 185.553 27.2466 187.892 27.2466ZM186.074 22.5958C186.286 21.7361 186.906 21.2993 187.836 21.2993C188.653 21.2993 189.287 21.7784 189.457 22.5958H186.074ZM192.961 27.1057H194.92V16.5358H192.961V27.1057ZM199.905 27.2466C200.906 27.2466 201.765 26.8802 202.174 26.2037L202.244 27.1057H204.091V16.5358H202.146V20.8765C201.723 20.2282 200.877 19.8618 199.905 19.8618C198.002 19.8618 196.452 21.257 196.452 23.5683C196.452 25.8795 198.002 27.2466 199.905 27.2466ZM198.411 23.5683C198.411 22.2717 199.228 21.4684 200.328 21.4684C201.413 21.4684 202.23 22.2717 202.23 23.5683C202.23 24.8648 201.413 25.6259 200.328 25.6259C199.228 25.6259 198.411 24.8648 198.411 23.5683ZM205.945 27.1057H207.904V20.0027H205.945V27.1057ZM205.804 17.776C205.804 18.4102 206.312 18.9034 206.946 18.9034C207.552 18.9034 208.059 18.4102 208.059 17.776C208.059 17.1559 207.552 16.6626 206.946 16.6626C206.312 16.6626 205.804 17.1559 205.804 17.776ZM214.708 22.7649V27.1057H216.653V22.3562C216.653 20.7778 215.751 19.8618 213.961 19.8618C212.975 19.8618 212.172 20.2282 211.664 20.8483L211.594 20.0027H209.747V27.1057H211.706V22.9623C211.819 21.8207 212.524 21.412 213.341 21.412C214.116 21.412 214.708 21.8207 214.708 22.7649ZM218.449 27.1057H220.408V20.0027H218.449V27.1057ZM218.308 17.776C218.308 18.4102 218.815 18.9034 219.449 18.9034C220.055 18.9034 220.563 18.4102 220.563 17.776C220.563 17.1559 220.055 16.6626 219.449 16.6626C218.815 16.6626 218.308 17.1559 218.308 17.776ZM221.729 27.1057H227.789V25.6118H224.647L227.93 20.0027H222.011V21.4966H224.999L221.729 27.1057Z" fill="black"/>
<g clip-path="url(#clip0_1094_3179)">
<path d="M136.271 52.9334L136.057 52.822C135.576 53.2847 135.104 53.8075 134.598 54.4159C134.898 57.1583 135.027 59.8492 135.027 62.5573C135.027 63.7571 134.992 64.6912 134.864 65.5739L135.138 65.771C135.567 65.2739 135.902 64.7854 136.168 64.3055C136.443 63.877 136.554 62.5659 136.554 60.5948C136.554 58.1695 136.52 55.6329 136.271 52.9334Z" fill="black"/>
<path d="M102.724 58.1523C101.986 58.1523 101.282 58.6065 100.613 59.3007C99.9434 60.0891 99.6259 61.0061 99.6259 62.0688C99.6259 63.4828 100.587 64.5969 102.527 64.5969C103.05 64.5969 103.591 64.5454 103.986 64.434C103.6 65.171 102.99 65.8652 102.175 66.4651C101.171 67.2021 100.115 67.6306 99.0766 67.6306C98.5531 67.6306 98.0725 67.5192 97.6176 67.3392L97.3516 68.0248C98.6218 68.8903 99.8834 69.4302 101.093 69.4302C101.986 69.4302 102.939 68.9675 104.029 67.5363C104.818 66.3708 105.333 65.0168 105.333 63.1914C105.333 60.2434 104.114 58.1523 102.724 58.1523ZM103.05 62.3259C101.711 62.3259 100.742 61.726 100.742 61.1518C100.742 60.7404 101.282 60.252 102.132 60.252C102.896 60.252 103.771 61.1261 104.089 62.2573C103.788 62.3001 103.454 62.3259 103.05 62.3259Z" fill="black"/>
<path d="M96.6293 59.011C96.1315 59.4995 95.6853 59.9879 95.2475 60.4764C95.4449 61.1277 95.5908 61.8904 95.711 62.6446C95.6252 62.8074 95.3849 62.8845 95.0931 62.8845C94.7412 62.8845 94.4322 62.7303 94.1662 62.4732C93.9001 62.199 93.8057 61.8562 93.8057 61.4877C93.8057 61.102 93.8658 60.6992 94.0031 60.2879L93.8915 60.2022C93.5912 60.365 93.2736 60.5535 92.9475 60.7935C92.7501 61.5734 92.6986 62.2932 91.8918 62.696C91.6172 62.8331 91.3511 62.9188 91.0422 62.936C90.7504 62.936 90.4672 62.7474 90.4672 62.3361C90.4672 61.9761 90.7675 61.3848 91.2482 60.6564L91.1623 60.5193C90.8019 60.6478 90.4242 60.7935 90.0295 60.9992C89.7377 61.3848 89.4029 61.9419 89.0511 62.2675C88.5962 62.7046 87.8495 62.9445 86.6909 62.9445H86.5193H84.2192C84.3565 62.5332 84.4423 62.1304 84.4423 61.719C84.4423 60.6135 83.8416 59.4138 83.0863 58.1883L82.3311 56.9456H82.1337C81.1896 58.4368 80.4944 60.4507 79.9881 62.9445H78.5806H78.4089C77.1816 62.9445 76.6152 61.9933 76.6152 60.2279C76.6152 57.0828 76.6152 54.5547 76.4779 52.6093L76.332 52.5065C75.9286 52.8321 75.4823 53.2435 74.976 53.732C75.139 56.2515 75.242 58.214 75.242 59.8851C75.242 61.1877 74.8043 62.0018 74.2121 62.6017L74.1778 62.5932C74.1778 60.4421 73.0106 59.0453 71.4829 56.68L72.0322 55.6944C70.7363 54.9832 69.7493 54.3147 69.2 53.7405H69.0284C68.7795 54.3661 68.625 54.906 68.625 55.3345C68.625 56.0715 69.5176 56.9371 70.3415 58.0254C71.9464 60.1422 73.1479 61.8819 73.474 62.9874C72.2811 63.8272 70.7363 64.5557 68.9082 65.1898V65.4298C69.5519 65.644 70.3243 65.764 71.3027 65.764C72.899 65.764 74.9502 65.0784 75.5596 62.8074H75.6111C75.8771 64.5728 76.7868 65.4298 78.4175 65.4298H78.5891C78.7865 65.4298 79.0783 65.4298 79.6019 65.3955C79.6019 68.1121 81.4557 69.569 83.0177 69.569C84.7599 69.569 85.6782 67.7779 85.6782 66.6381C85.6782 66.2096 85.6439 65.7983 85.4808 65.3698C85.9099 65.4212 86.1846 65.4298 86.3476 65.4298H86.5193H86.6909C87.8495 65.4298 88.6563 65.0441 89.2914 64.4442H89.3257C89.463 65.1727 90.0295 65.4298 90.6646 65.4298C91.2653 65.4298 92.0292 65.0698 92.7329 64.3243H92.7587C93.3079 65.0613 93.8915 65.3869 94.518 65.3869C95.1961 65.3869 95.7882 64.907 96.3461 64.1357C96.758 63.493 97.0842 62.6189 97.0842 61.9419C97.0842 61.1877 97.0498 60.5021 96.7924 59.0881L96.6293 59.011ZM81.859 59.7737H81.9105C82.6915 60.9735 83.1893 61.9419 83.1893 62.4132C83.1893 62.816 82.3396 62.9102 80.8892 62.9102C81.1639 61.9761 81.4642 60.9478 81.859 59.7737ZM83.5669 67.5465C82.3911 67.5465 81.0695 66.4067 80.8034 65.3526C81.284 65.2755 81.7217 65.2412 82.1165 65.2412C82.846 65.2412 83.3438 65.4898 83.7214 65.9782C84.0218 66.381 84.1763 66.8181 84.1763 67.178C84.1849 67.4265 83.9446 67.5465 83.5669 67.5465Z" fill="black"/>
<path d="M129.455 58.4179C128.391 57.6895 127.447 56.9525 126.623 56.1984H126.408C126.245 56.6526 126.108 57.1153 126.005 57.5867C124.829 58.4522 124.023 59.712 124.014 61.3917C124.014 61.8287 124.048 62.2658 124.1 62.7029C123.207 62.84 122.641 62.9 122.289 62.9H122.117H121.946C120.718 62.9 120.152 61.9487 120.152 60.1833C120.152 57.0382 120.152 54.5101 120.015 52.5647L119.86 52.5048C119.457 52.8304 119.01 53.2418 118.504 53.7302C118.667 56.2498 118.77 58.2123 118.77 59.8834C118.77 61.186 118.332 62.0001 117.74 62.6L117.706 62.5915C117.706 60.4404 116.539 59.0435 115.011 56.6783L115.56 55.6927C114.264 54.9814 113.277 54.313 112.728 53.7388H112.548C112.299 54.3644 112.145 54.9043 112.145 55.3328C112.145 56.0698 113.037 56.9354 113.861 58.0237C115.466 60.1405 116.667 61.8802 116.994 62.9857C115.801 63.8255 114.256 64.5539 112.428 65.1881V65.4281C113.071 65.6423 113.844 65.7623 114.822 65.7623C116.419 65.7623 118.47 65.0767 119.079 62.8057H119.131C119.397 64.5711 120.306 65.4281 121.937 65.4281H122.109H122.28C123.259 65.4281 124.46 65.2053 125.945 64.6396C127.601 65.1196 129.078 65.4281 130.236 65.4281C131.154 65.4281 131.832 65.0167 132.279 64.074C132.545 63.5341 132.665 62.9685 132.665 62.4115C132.682 60.5433 131.257 59.6349 129.455 58.4179ZM126.597 62.4029C125.748 62.1373 124.975 61.5374 124.975 60.9118C124.975 60.3204 125.902 59.3949 126.692 59.3949C127.473 59.3949 128.099 60.3462 128.099 61.2888C128.099 61.6831 127.533 62.1887 126.597 62.4029ZM130.622 63.277C130.03 63.277 129.266 63.1485 128.451 62.9171C128.769 62.2658 128.992 61.6059 129.095 60.8861C130.459 61.7002 131.378 62.4372 131.378 63.0028C131.378 63.1913 131.094 63.277 130.622 63.277Z" fill="black"/>
</g>
<path d="M109.318 45.9264C74.5586 45.9264 65.4778 42.888 60.269 50.7011C53.2866 61.1748 39 63.723 39 63.723C39 63.723 51.1537 64.157 59.4009 71.102C67.6481 78.047 90.6534 75.0086 118.867 75.0086C134.59 75.0086 149.15 75.0086 149.15 60.5031C149.15 45.9977 146.213 45.9264 109.318 45.9264Z" stroke="black" stroke-width="2.95182" stroke-linejoin="round"/>
<path d="M230.595 45.0108C196.593 45.0108 193.738 44.4234 187.511 51.8937C179.992 60.9155 163 57.0352 163 57.0352C163 57.0352 182.124 64.1143 187.511 71.1782C192.898 78.242 212.337 75.8429 239.936 75.8429C255.316 75.8429 269.559 75.8429 269.559 60.4646C269.559 45.0863 262.095 45.0108 230.595 45.0108Z" stroke="black" stroke-width="3.11458" stroke-linejoin="round"/>
<path d="M29.6962 107.291C31.5988 107.291 33.149 105.924 33.149 103.613C33.149 101.302 31.5988 99.9065 29.6962 99.9065C28.7378 99.9065 27.9063 100.259 27.4695 100.907V96.5805H25.5105V107.15H27.3567L27.4272 106.248C27.85 106.925 28.7097 107.291 29.6962 107.291ZM27.3849 103.613C27.3849 102.316 28.1882 101.513 29.2875 101.513C30.3726 101.513 31.1901 102.316 31.1901 103.613C31.1901 104.91 30.3726 105.671 29.2875 105.671C28.1882 105.671 27.3849 104.91 27.3849 103.613ZM34.6655 107.15H36.6244V100.047H34.6655V107.15ZM34.5245 97.8207C34.5245 98.4549 35.0319 98.9482 35.6661 98.9482C36.2721 98.9482 36.7794 98.4549 36.7794 97.8207C36.7794 97.2006 36.2721 96.7073 35.6661 96.7073C35.0319 96.7073 34.5245 97.2006 34.5245 97.8207ZM41.9769 107.291C43.5976 107.291 44.88 106.474 45.3451 105.022L43.5553 104.783C43.2734 105.431 42.7097 105.755 41.9628 105.755C40.948 105.755 40.1729 105.135 40.0743 103.994H45.472L45.5001 103.543C45.4861 101.076 43.9499 99.9065 41.9064 99.9065C39.6797 99.9065 38.1435 101.302 38.1435 103.599C38.1435 105.896 39.6374 107.291 41.9769 107.291ZM40.1588 102.641C40.3702 101.781 40.9903 101.344 41.9205 101.344C42.7379 101.344 43.3721 101.823 43.5412 102.641H40.1588ZM52.006 102.81V107.15H53.9509V102.401C53.9509 100.823 53.0489 99.9065 51.2591 99.9065C50.2726 99.9065 49.4693 100.273 48.9619 100.893L48.8914 100.047H47.0452V107.15H49.0042V103.007C49.1169 101.865 49.8216 101.457 50.639 101.457C51.4141 101.457 52.006 101.865 52.006 102.81ZM57.9079 107.15H59.6554L62.6855 100.047H60.5574L58.7817 104.839L56.9918 100.047H54.8778L57.9079 107.15ZM67.0627 107.291C68.6835 107.291 69.9659 106.474 70.431 105.022L68.6412 104.783C68.3593 105.431 67.7956 105.755 67.0486 105.755C66.0339 105.755 65.2588 105.135 65.1602 103.994H70.5578L70.586 103.543C70.5719 101.076 69.0358 99.9065 66.9923 99.9065C64.7655 99.9065 63.2294 101.302 63.2294 103.599C63.2294 105.896 64.7233 107.291 67.0627 107.291ZM65.2447 102.641C65.4561 101.781 66.0762 101.344 67.0064 101.344C67.8238 101.344 68.458 101.823 68.6271 102.641H65.2447ZM77.0919 102.81V107.15H79.0368V102.401C79.0368 100.823 78.1348 99.9065 76.345 99.9065C75.3584 99.9065 74.5551 100.273 74.0478 100.893L73.9773 100.047H72.1311V107.15H74.0901V103.007C74.2028 101.865 74.9075 101.457 75.7249 101.457C76.5 101.457 77.0919 101.865 77.0919 102.81ZM83.4817 107.291C84.4683 107.291 85.2716 106.911 85.7648 106.291L85.8494 107.15H87.6956V100.047H85.7367V103.909C85.7226 105.262 84.9615 105.727 84.0878 105.727C83.3126 105.727 82.7207 105.332 82.7207 104.388V100.047H80.7759V104.797C80.7759 106.361 81.6919 107.291 83.4817 107.291ZM93.0845 107.291C94.7052 107.291 95.9877 106.474 96.4528 105.022L94.6629 104.783C94.3811 105.431 93.8173 105.755 93.0704 105.755C92.0557 105.755 91.2806 105.135 91.1819 103.994H96.5796L96.6078 103.543C96.5937 101.076 95.0575 99.9065 93.014 99.9065C90.7873 99.9065 89.2511 101.302 89.2511 103.599C89.2511 105.896 90.745 107.291 93.0845 107.291ZM91.2665 102.641C91.4779 101.781 92.098 101.344 93.0281 101.344C93.8455 101.344 94.4797 101.823 94.6488 102.641H91.2665Z" fill="black"/>
<path d="M198.415 63.6811H200.431L201.967 59.0022L203.517 63.6811H205.518L208.013 56.5781H205.941L204.433 61.3416L202.756 56.5781H201.178L199.5 61.3134L197.993 56.5781H195.921L198.415 63.6811ZM212.413 63.822C214.034 63.822 215.316 63.0046 215.781 61.553L213.991 61.3134C213.709 61.9617 213.146 62.2859 212.399 62.2859C211.384 62.2859 210.609 61.6658 210.51 60.5242H215.908L215.936 60.0732C215.922 57.6069 214.386 56.4372 212.342 56.4372C210.116 56.4372 208.579 57.8324 208.579 60.1296C208.579 62.4268 210.073 63.822 212.413 63.822ZM210.595 59.1713C210.806 58.3116 211.426 57.8747 212.356 57.8747C213.174 57.8747 213.808 58.3539 213.977 59.1713H210.595ZM217.481 63.6811H219.44V53.1112H217.481V63.6811ZM224.806 63.822C226.582 63.822 227.963 62.8637 228.301 61.1725L226.497 61.0034C226.286 61.8631 225.666 62.2859 224.778 62.2859C223.65 62.2859 222.918 61.398 222.918 60.1155C222.918 58.8471 223.65 57.9593 224.778 57.9593C225.666 57.9593 226.286 58.3821 226.497 59.2417L228.301 59.0726C227.963 57.3814 226.624 56.4372 224.806 56.4372C222.537 56.4372 220.973 57.9311 220.973 60.1155C220.973 62.3141 222.537 63.822 224.806 63.822ZM233.371 63.822C235.668 63.8079 237.275 62.4127 237.275 60.1155C237.275 57.8465 235.668 56.4513 233.371 56.4372C231.088 56.4513 229.481 57.8465 229.481 60.1155C229.481 62.4127 231.088 63.8079 233.371 63.822ZM231.426 60.1155C231.426 58.8612 232.201 57.9874 233.371 57.9874C234.541 57.9874 235.316 58.8612 235.316 60.1155C235.316 61.398 234.541 62.2718 233.371 62.2718C232.201 62.2718 231.426 61.398 231.426 60.1155ZM247.9 59.1995V63.6811H249.845V58.5371C249.845 57.2264 248.929 56.4372 247.393 56.4372C246.392 56.4372 245.603 56.8741 245.138 57.6492C244.8 56.8741 243.996 56.4372 242.841 56.4372C241.925 56.4372 241.192 56.8036 240.727 57.4519L240.642 56.5781H238.796V63.6811H240.755V59.7773C240.755 58.4384 241.403 57.9874 242.15 57.9874C242.827 57.9874 243.348 58.3961 243.348 59.1995V63.6811H245.307V59.7773C245.307 58.4243 245.955 57.9874 246.702 57.9874C247.379 57.9874 247.9 58.3821 247.9 59.1995ZM255.163 63.822C256.784 63.822 258.066 63.0046 258.531 61.553L256.742 61.3134C256.46 61.9617 255.896 62.2859 255.149 62.2859C254.134 62.2859 253.359 61.6658 253.26 60.5242H258.658L258.686 60.0732C258.672 57.6069 257.136 56.4372 255.093 56.4372C252.866 56.4372 251.33 57.8324 251.33 60.1296C251.33 62.4268 252.824 63.822 255.163 63.822ZM253.345 59.1713C253.556 58.3116 254.177 57.8747 255.107 57.8747C255.924 57.8747 256.558 58.3539 256.727 59.1713H253.345Z" fill="black"/>
<path d="M95.4943 114.405C73.4041 118.475 22.0623 118.31 15.0381 110.44C8.8045 103.456 9.97805 88.2481 21.8371 87.6006C32.4381 87.0218 31.8517 73.4086 31.8517 73.4086C31.8517 73.4086 38.6026 85.057 42.7531 87.7374C50.4321 92.6965 78.7597 88.5256 92.3954 88.8364C112.679 89.2987 113.519 111.084 95.4943 114.405Z" stroke="black" stroke-width="3.01454" stroke-linejoin="round"/>
<defs>
<clipPath id="clip0_1094_3179">
<rect width="68.5818" height="17.3625" fill="white" transform="translate(68.3047 52.4188)"/>
</clipPath>
</defs>
</svg>
