<svg width="52" height="46" viewBox="0 0 52 46" fill="none" xmlns="http://www.w3.org/2000/svg">
<g clip-path="url(#clip0_28_2053)">
<path d="M47 13.6883C47 10.0515 44.0541 7.09234 40.4336 7.09234C36.813 7.09234 33.8672 10.0515 33.8672 13.6883C33.8672 16.8193 36.0528 19.4538 38.9797 20.122V32.0635C38.9797 34.6599 38.2004 43.1363 28.1655 43.1363C23.2336 43.1363 17.4844 40.2345 17.4844 32.0635C17.4844 28.7989 17.5034 26.9375 17.5224 25.9543C20.8769 24.4271 27.7664 19.072 27.7664 11.9797C27.7664 4.88732 27.6524 3.99004 26.284 3.77049L22.8345 2.02366C22.5304 0.859099 21.4946 0 20.2402 0C18.7483 0 17.5414 1.21228 17.5414 2.71094C17.5414 4.20959 18.7483 5.42187 20.2402 5.42187C20.8959 5.42187 21.4851 5.18323 21.9507 4.79187L24.792 6.2237C24.8491 6.93961 24.9156 8.53372 24.9156 11.9892C24.9156 18.232 17.8455 22.8043 16.1065 23.4916C14.3295 22.6134 6.86033 16.8193 6.86033 11.5501V6.12824L9.75867 4.72505C10.2338 5.1546 10.8515 5.42187 11.5452 5.42187C13.0371 5.42187 14.2345 4.20959 14.2345 2.71094C14.2345 1.21228 13.0276 0 11.5452 0C10.3288 0 9.32155 0.811372 8.97945 1.91866L4.80773 3.93277C4.31359 4.1714 4 4.66777 4 5.22142V11.5406C4 17.707 11.2411 24.1311 14.6621 25.9162C14.6431 26.9184 14.6241 28.7894 14.6241 32.0635C14.6241 41.695 21.4186 46 28.156 46C38.229 46 41.821 38.8027 41.821 32.0635V20.1411C44.7764 19.5016 47 16.8479 47 13.6979V13.6883ZM40.4336 17.4302C38.381 17.4302 36.718 15.7502 36.718 13.6979C36.718 11.6456 38.381 9.96555 40.4336 9.96555C42.4862 9.96555 44.1492 11.6456 44.1492 13.6979C44.1492 15.7502 42.4767 17.4302 40.4336 17.4302Z" fill="black"/>
</g>
<defs>
<clipPath id="clip0_28_2053">
<rect width="43" height="46" fill="white" transform="translate(4)"/>
</clipPath>
</defs>
</svg>
