<svg width="52" height="47" viewBox="0 0 52 47" fill="none" xmlns="http://www.w3.org/2000/svg">
<g clip-path="url(#clip0_338_5056)">
<path d="M39.109 30.7432H31.4217C28.4058 30.7432 25.9512 33.3214 25.9512 36.4801C25.9512 39.6387 28.4058 42.217 31.4217 42.217C32.2875 42.217 33.2959 42.217 33.9048 42.198L38.072 45.8228C38.3383 46.0511 38.6713 46.1748 39.0043 46.1748C39.2041 46.1748 39.4039 46.1368 39.5942 46.0511C40.1079 45.8228 40.4314 45.309 40.4314 44.7477V42.0457C42.8004 41.4178 44.57 39.163 44.57 36.4801C44.57 33.3119 42.1154 30.7432 39.0995 30.7432H39.109ZM39.109 39.3628H39.0138C38.2242 39.3628 37.5867 40.0002 37.5867 40.7899V41.6176L35.37 39.6958C35.1131 39.4675 34.7801 39.3438 34.4376 39.3438H34.4186C34.4186 39.3438 32.7537 39.3628 31.4312 39.3628C29.9946 39.3628 28.8149 38.0689 28.8149 36.4801C28.8149 34.8912 29.9851 33.5974 31.4312 33.5974H39.1185C40.5551 33.5974 41.7348 34.8912 41.7348 36.4801C41.7348 38.0689 40.5646 39.3628 39.1185 39.3628H39.109Z" fill="black"/>
<path d="M20.3949 0.174805H12.7171C9.70118 0.174805 7.24658 2.75309 7.24658 5.91172C7.24658 8.59466 9.00666 10.8495 11.3852 11.4774V14.1794C11.3852 14.7407 11.7086 15.2449 12.2224 15.4828C12.4127 15.5684 12.6125 15.6064 12.8122 15.6064C13.1452 15.6064 13.4877 15.4828 13.7446 15.2544L17.9117 11.6296C18.5206 11.6296 19.5291 11.6486 20.3949 11.6486C23.4108 11.6486 25.8654 9.07036 25.8654 5.91172C25.8654 2.75309 23.4108 0.174805 20.3949 0.174805ZM20.3949 8.79445C19.0724 8.79445 17.4075 8.77543 17.4075 8.77543C17.0935 8.76591 16.7225 8.89911 16.4561 9.12744L14.2393 11.0493V10.2215C14.2393 9.43189 13.6019 8.79445 12.8122 8.79445H12.7171C11.2805 8.79445 10.1008 7.50055 10.1008 5.91172C10.1008 4.32289 11.271 3.02899 12.7171 3.02899H20.3949C21.8315 3.02899 23.0112 4.32289 23.0112 5.91172C23.0112 7.50055 21.841 8.79445 20.3949 8.79445Z" fill="black"/>
<path d="M48.9082 22.2759C48.4516 21.6385 47.5573 21.4863 46.9198 21.9525L45.4547 22.999C45.6259 13.9607 39.6702 5.78825 31.0315 3.99011C30.2609 3.82837 29.4998 4.3231 29.3475 5.09373C29.1858 5.86436 29.6805 6.62548 30.4512 6.7777C37.7008 8.29042 42.7146 15.1785 42.61 22.8373L41.2495 21.4863C40.6882 20.9345 39.7843 20.9345 39.2325 21.4863C38.6807 22.0476 38.6807 22.9514 39.2325 23.5032L42.7337 26.9758C42.8669 27.109 43.0191 27.2137 43.1999 27.2803C43.2855 27.3183 43.3806 27.3469 43.4758 27.3659C43.5614 27.3849 43.647 27.3849 43.7326 27.3849C43.7326 27.3849 43.7326 27.3849 43.7422 27.3849C43.8944 27.3849 44.0466 27.3564 44.1893 27.3088C44.2464 27.2898 44.294 27.2517 44.351 27.2327C44.4272 27.1947 44.5033 27.1756 44.5699 27.1281L48.5752 24.2453C49.2127 23.7887 49.3649 22.8944 48.8987 22.2569L48.9082 22.2759Z" fill="black"/>
<path d="M21.8982 38.4495C14.6485 36.9368 9.6442 30.0487 9.73934 22.39L11.0998 23.741C11.3757 24.0169 11.7373 24.1596 12.1083 24.1596C12.4794 24.1596 12.8409 24.0169 13.1168 23.741C13.6686 23.1796 13.6686 22.2758 13.1168 21.724L9.61566 18.2514C9.50149 18.1467 9.37781 18.0516 9.2351 17.985C9.21608 17.985 9.20656 17.966 9.18753 17.9565C9.09239 17.9089 8.98774 17.8804 8.87357 17.8613C8.83552 17.8613 8.80698 17.8613 8.76892 17.8613C8.74038 17.8613 8.71184 17.8613 8.68329 17.8613C8.54058 17.8613 8.39787 17.8613 8.26468 17.8994C8.23614 17.8994 8.21711 17.9184 8.18857 17.9279C8.04586 17.9755 7.91266 18.0326 7.78898 18.1182C7.78898 18.1182 7.77947 18.1182 7.76995 18.1182L3.76458 20.9914C3.12714 21.4481 2.97492 22.3424 3.4411 22.9798C3.89777 23.6173 4.79208 23.7695 5.42952 23.3033L6.89467 22.2473C6.72342 31.2855 12.6792 39.4485 21.3178 41.2562C21.413 41.2752 21.5176 41.2847 21.6128 41.2847C22.2787 41.2847 22.8686 40.8185 23.0113 40.1525C23.1731 39.3819 22.6783 38.6208 21.9077 38.4686L21.8982 38.4495Z" fill="black"/>
</g>
<defs>
<clipPath id="clip0_338_5056">
<rect width="46" height="46" fill="white" transform="translate(3.1748 0.174805)"/>
</clipPath>
</defs>
</svg>
