<svg width="52" height="46" viewBox="0 0 52 46" fill="none" xmlns="http://www.w3.org/2000/svg">
<g clip-path="url(#clip0_28_2137)">
<path d="M14.1352 13.0674L18.6868 16.8026C18.9255 16.9983 19.226 17.105 19.5265 17.105C19.7209 17.105 19.9153 17.0605 20.0921 16.9716C20.5517 16.7493 20.8522 16.2779 20.8522 15.771V12.9429C23.3976 12.347 25.2978 10.088 25.2978 7.38442C25.2978 4.23613 22.7524 1.6748 19.6237 1.6748H11.3689C8.2402 1.6748 5.69482 4.23613 5.69482 7.38442C5.69482 10.5327 8.2402 13.094 11.3689 13.094C12.3499 13.094 13.4989 13.0851 14.1352 13.0763V13.0674ZM8.34626 7.38442C8.34626 5.71245 9.69849 4.34285 11.3689 4.34285H19.6325C21.2941 4.34285 22.6552 5.70355 22.6552 7.38442C22.6552 9.06529 21.2234 10.426 19.5353 10.426C18.8017 10.426 18.2096 11.0219 18.2096 11.76V12.9695L15.4521 10.7017C15.2135 10.506 14.9218 10.3993 14.6125 10.3993H14.5948C14.5948 10.3993 12.8095 10.426 11.3777 10.426C9.71616 10.426 8.3551 9.06529 8.3551 7.38442H8.34626Z" fill="black"/>
<path d="M29.8494 16.6426V19.4796C29.8494 19.9954 30.1411 20.4668 30.6095 20.6802C30.7951 20.7691 30.9807 20.8136 31.1751 20.8136C31.4756 20.8136 31.7673 20.7069 32.0148 20.5112L36.5664 16.776C37.2027 16.776 38.3517 16.7937 39.3327 16.7937C42.4614 16.7937 45.0068 14.2324 45.0068 11.0841C45.0068 7.93584 42.4614 5.37451 39.3327 5.37451H31.0691C27.9404 5.37451 25.395 7.93584 25.395 11.0841C25.395 13.7789 27.2952 16.0467 29.8406 16.6426H29.8494ZM31.0691 8.05145H39.3327C40.9943 8.05145 42.3554 9.41215 42.3554 11.093C42.3554 12.7739 41.0031 14.1346 39.3327 14.1346C37.9009 14.1346 36.1245 14.1079 36.1156 14.1079C35.7798 14.1257 35.5058 14.2146 35.2584 14.4103L32.5009 16.6781V15.4686C32.5009 14.7305 31.9087 14.1346 31.1751 14.1346C29.4782 14.1346 28.0553 12.7472 28.0553 11.093C28.0553 9.43883 29.4075 8.05145 31.0779 8.05145H31.0691Z" fill="black"/>
<path d="M45.2452 28.0085C44.3172 27.0747 43.0268 26.5855 41.5685 26.5677C41.5685 26.5144 41.5685 26.461 41.5685 26.4076C41.5685 22.4412 28.5942 22.1299 24.617 22.1299C20.6399 22.1299 7.67437 22.4412 7.66553 26.3988C7.66553 37.1599 14.6388 44.6749 24.617 44.6749C28.8151 44.6749 32.5713 43.1897 35.4702 40.655C36.0889 40.8862 36.7606 41.0196 37.4588 41.0196C39.5623 41.0196 41.9044 39.988 43.7869 38.0937C46.9951 34.8654 47.6315 30.4364 45.2275 28.0085H45.2452ZM24.6259 24.7979C31.882 24.7979 36.5662 25.7051 38.3338 26.4076C36.575 27.1102 31.882 28.0174 24.6259 28.0174C17.3698 28.0174 12.6856 27.1102 10.918 26.4076C12.6767 25.7051 17.3698 24.7979 24.6259 24.7979ZM10.476 29.0401C14.5239 30.5253 21.8153 30.6765 24.6259 30.6765C27.4364 30.6765 34.7013 30.5253 38.7492 29.049C38.2454 32.6865 36.7076 35.7814 34.445 38.0403C34.3743 38.1026 34.3036 38.1737 34.2417 38.2449C31.7582 40.6194 28.4351 42.0068 24.6347 42.0068C18.121 42.0068 11.5631 37.9692 10.4849 29.0401H10.476ZM41.922 36.1994C40.6317 37.5067 39.0143 38.2538 37.6621 38.3249C39.6065 35.8258 40.9057 32.7131 41.3652 29.2269C42.196 29.2002 42.9031 29.4225 43.3627 29.885C44.6707 31.2012 44.0078 34.0916 41.922 36.1994Z" fill="black"/>
</g>
<defs>
<clipPath id="clip0_28_2137">
<rect width="41" height="43" fill="white" transform="translate(5.69482 1.6748)"/>
</clipPath>
</defs>
</svg>
