<svg width="52" height="46" viewBox="0 0 52 46" fill="none" xmlns="http://www.w3.org/2000/svg">
<path d="M26 46C32.1 46 37.9501 43.5768 42.2635 39.2635C46.5768 34.9501 49 29.1 49 23C49 16.9 46.5768 11.0499 42.2635 6.73654C37.9501 2.42321 32.1 0 26 0C19.9 0 14.0499 2.42321 9.73654 6.73654C5.42321 11.0499 3 16.9 3 23C3 29.1 5.42321 34.9501 9.73654 39.2635C14.0499 43.5768 19.9 46 26 46ZM22.4062 30.1875H24.5625V24.4375H22.4062C21.2113 24.4375 20.25 23.4762 20.25 22.2812C20.25 21.0863 21.2113 20.125 22.4062 20.125H26.7188C27.9137 20.125 28.875 21.0863 28.875 22.2812V30.1875H29.5938C30.7887 30.1875 31.75 31.1488 31.75 32.3438C31.75 33.5387 30.7887 34.5 29.5938 34.5H22.4062C21.2113 34.5 20.25 33.5387 20.25 32.3438C20.25 31.1488 21.2113 30.1875 22.4062 30.1875ZM26 11.5C26.7625 11.5 27.4938 11.8029 28.0329 12.3421C28.5721 12.8812 28.875 13.6125 28.875 14.375C28.875 15.1375 28.5721 15.8688 28.0329 16.4079C27.4938 16.9471 26.7625 17.25 26 17.25C25.2375 17.25 24.5062 16.9471 23.9671 16.4079C23.4279 15.8688 23.125 15.1375 23.125 14.375C23.125 13.6125 23.4279 12.8812 23.9671 12.3421C24.5062 11.8029 25.2375 11.5 26 11.5Z" fill="black"/>
</svg>
