<svg width="52" height="46" viewBox="0 0 52 46" fill="none" xmlns="http://www.w3.org/2000/svg">
<g clip-path="url(#clip0_28_2055)">
<path d="M19.3826 11.9341C18.5241 11.9341 17.8296 12.6209 17.8296 13.47C17.8296 14.319 18.5241 15.0058 19.3826 15.0058C20.2412 15.0058 20.9357 14.319 20.9357 13.47C20.9357 12.6209 20.2412 11.9341 19.3826 11.9341Z" fill="black"/>
<path d="M32.6175 11.9341C31.759 11.9341 31.0645 12.6209 31.0645 13.47C31.0645 14.319 31.759 15.0058 32.6175 15.0058C33.476 15.0058 34.1706 14.319 34.1706 13.47C34.1706 12.6209 33.476 11.9341 32.6175 11.9341Z" fill="black"/>
<path d="M25.942 19.1938L28.2185 15.4257L23.7812 15.3589L25.942 19.1938Z" fill="black"/>
<path d="M44 4.38822C44 3.59643 43.3537 2.95728 42.5531 2.95728C41.7524 2.95728 41.1061 3.59643 41.1061 4.38822C41.1061 5.4185 40.1222 6.86852 38.5884 7.04977C38.5402 7.00207 38.492 6.96392 38.4437 6.92576C36.2058 2.73787 31.5949 0 26 0C20.4051 0 15.717 2.78557 13.4984 7.02115C13.4791 7.03069 13.4695 7.04977 13.4502 7.05931C12.582 6.96392 11.9743 6.48693 11.6849 6.18167C11.1929 5.65699 10.8939 4.97014 10.8939 4.38822C10.8939 3.59643 10.2476 2.95728 9.45659 2.94774C8.6463 2.94774 8 3.58689 8 4.37868C8 5.69515 8.55949 7.05931 9.5627 8.12775C10.3633 8.97677 11.3569 9.54915 12.4469 9.80672C12.2154 10.7702 12.0804 11.7719 12.0804 12.8117C12.0804 16.1601 13.7588 18.8121 16.0547 20.7582C15.9775 20.8345 15.91 20.9108 15.8232 20.9871C13.5659 23.2385 10.1511 26.6441 10.1511 31.7192C10.1511 36.3841 13.1897 40.4289 16.0643 42.6898V44.5595C16.0643 45.3513 16.7106 45.9905 17.5113 45.9905H34.4887C35.2894 45.9905 35.9357 45.3513 35.9357 44.5595V42.6802C37.9035 41.0871 41.8489 36.4127 41.8489 31.7097C41.8489 26.6251 38.4437 23.2003 36.1865 20.9299C36.1093 20.8536 36.0514 20.7963 35.9839 20.72C38.2604 18.774 39.9293 16.1315 39.9293 12.8022C39.9293 11.7528 39.7942 10.7416 39.5531 9.7781C42.2251 9.15803 44 6.65865 44.0096 4.37868L44 4.38822ZM32.6559 4.73165C30.5338 4.70303 28.5852 5.4185 27.2733 6.71589C26.8585 7.12609 26.4051 7.64123 25.9904 8.22314C25.5756 7.64123 25.1318 7.12609 24.717 6.71589C23.3955 5.40896 21.4373 4.72211 19.2958 4.76027C21.119 3.55827 23.4051 2.87142 25.9904 2.87142C28.5756 2.87142 30.8328 3.55827 32.6463 4.74119L32.6559 4.73165ZM33.0418 43.1381H18.9582V33.5413H33.0418V43.1381ZM22.1994 30.6794C22.1994 30.4027 22.2669 30.0784 22.4695 29.7922C22.9614 29.134 24.2154 28.7715 26 28.7715C27.7846 28.7715 29.0386 29.134 29.5305 29.7922C29.7428 30.0689 29.8006 30.3932 29.8006 30.6794H22.1897H22.1994ZM34.1222 22.9428C36.1576 24.9938 38.955 27.7984 38.955 31.7192C38.955 34.1232 37.4309 36.7561 35.9357 38.5973V32.1103C35.9357 31.3185 35.2894 30.6794 34.4887 30.6794H32.6945C32.6945 29.9258 32.5209 29.01 31.8939 28.1418C30.8232 26.6632 28.836 25.9096 26 25.9096C23.164 25.9096 21.1768 26.6632 20.1061 28.1418C19.4791 29.01 19.3055 29.9258 19.3055 30.6794H17.5113C16.7106 30.6794 16.0643 31.3185 16.0643 32.1103V38.7404C14.4341 36.8992 13.045 34.3998 13.045 31.7192C13.045 27.827 15.8424 25.0415 17.8778 23.0095C18.0804 22.8092 18.2637 22.6184 18.4469 22.4372C21.0418 23.9158 23.9068 24.679 26 24.679C28.0932 24.679 30.9871 23.9158 33.5916 22.4181C33.7653 22.5993 33.9389 22.771 34.1222 22.9618V22.9428ZM32.9646 19.4608C32.9646 19.4608 32.9357 19.4799 32.926 19.4894C30.6399 21.0062 27.881 21.8075 26.0096 21.8075C24.1383 21.8075 21.4084 21.0158 19.1318 19.518C19.1029 19.499 19.074 19.4799 19.045 19.4608C16.7878 17.944 14.9936 15.7022 14.9936 12.8212C14.9936 11.3998 15.283 10.0643 15.8039 8.87184C16.6817 8.16591 17.8875 7.69847 19.1608 7.62215C20.5981 7.53629 21.8907 7.9465 22.6913 8.73828C23.6559 9.69224 24.4759 11.0278 24.5723 11.8005C24.6592 12.516 25.2765 13.0597 26.0096 13.0597C26.7428 13.0597 27.3601 12.516 27.4469 11.8005C27.5434 11.0469 28.373 9.70178 29.3376 8.73828C30.1479 7.93696 31.4405 7.51721 32.8875 7.59353C34.1415 7.66031 35.328 8.10867 36.1961 8.78598C36.746 9.99751 37.045 11.3617 37.045 12.8212C37.045 15.7117 35.2508 17.944 32.9839 19.4703L32.9646 19.4608Z" fill="black"/>
<path d="M24.5046 41.85H27.3985V39.7704H29.5014V36.9085H27.3985V34.8193H24.5046V36.9085H22.3921V39.7704H24.5046V41.85Z" fill="black"/>
</g>
<defs>
<clipPath id="clip0_28_2055">
<rect width="36" height="46" fill="white" transform="translate(8)"/>
</clipPath>
</defs>
</svg>
