<svg width="52" height="46" viewBox="0 0 52 46" fill="none" xmlns="http://www.w3.org/2000/svg">
<path d="M5.85 9.625C5.85 8.39837 6.32937 7.22199 7.18266 6.35463C8.03595 5.48728 9.19326 5 10.4 5C11.6067 5 12.764 5.48728 13.6173 6.35463C14.4706 7.22199 14.95 8.39837 14.95 9.625C14.95 10.8516 14.4706 12.028 13.6173 12.8954C12.764 13.7627 11.6067 14.25 10.4 14.25C9.19326 14.25 8.03595 13.7627 7.18266 12.8954C6.32937 12.028 5.85 10.8516 5.85 9.625ZM5.2 22.6493C4.3875 23.5743 3.9 24.8049 3.9 26.1429C3.9 27.4808 4.3875 28.7114 5.2 29.6364V22.6411V22.6493ZM16.9325 18.5777C14.5194 20.7498 13 23.9295 13 27.4643C13 30.2971 13.975 32.8987 15.6 34.9386V36.7143C15.6 38.1761 14.4381 39.3571 13 39.3571H7.8C6.36187 39.3571 5.2 38.1761 5.2 36.7143V34.5009C2.12875 33.0143 0 29.8346 0 26.1429C0 21.0306 4.07062 16.8929 9.1 16.8929H11.7C13.65 16.8929 15.4537 17.5123 16.9325 18.5694V18.5777ZM36.4 36.7143V34.9386C38.025 32.8987 39 30.2971 39 27.4643C39 23.9295 37.4806 20.7498 35.0675 18.5694C36.5462 17.5123 38.35 16.8929 40.3 16.8929H42.9C47.9294 16.8929 52 21.0306 52 26.1429C52 29.8346 49.8712 33.0143 46.8 34.5009V36.7143C46.8 38.1761 45.6381 39.3571 44.2 39.3571H39C37.5619 39.3571 36.4 38.1761 36.4 36.7143ZM37.05 9.625C37.05 8.39837 37.5294 7.22199 38.3827 6.35463C39.236 5.48728 40.3933 5 41.6 5C42.8067 5 43.964 5.48728 44.8173 6.35463C45.6706 7.22199 46.15 8.39837 46.15 9.625C46.15 10.8516 45.6706 12.028 44.8173 12.8954C43.964 13.7627 42.8067 14.25 41.6 14.25C40.3933 14.25 39.236 13.7627 38.3827 12.8954C37.5294 12.028 37.05 10.8516 37.05 9.625ZM46.8 22.6493V29.6446C47.6125 28.7114 48.1 27.4891 48.1 26.1511C48.1 24.8132 47.6125 23.5826 46.8 22.6576V22.6493ZM26 5C27.3791 5 28.7018 5.55689 29.677 6.54815C30.6521 7.53941 31.2 8.88386 31.2 10.2857C31.2 11.6876 30.6521 13.032 29.677 14.0233C28.7018 15.0145 27.3791 15.5714 26 15.5714C24.6209 15.5714 23.2982 15.0145 22.323 14.0233C21.3479 13.032 20.8 11.6876 20.8 10.2857C20.8 8.88386 21.3479 7.53941 22.323 6.54815C23.2982 5.55689 24.6209 5 26 5ZM19.5 27.4643C19.5 28.8022 19.9875 30.0246 20.8 30.9578V23.9625C19.9875 24.8958 19.5 26.1181 19.5 27.456V27.4643ZM31.2 23.9708V30.9661C32.0125 30.0328 32.5 28.8105 32.5 27.4725C32.5 26.1346 32.0125 24.904 31.2 23.979V23.9708ZM36.4 27.4643C36.4 31.156 34.2712 34.3357 31.2 35.8223V39.3571C31.2 40.819 30.0381 42 28.6 42H23.4C21.9619 42 20.8 40.819 20.8 39.3571V35.8223C17.7288 34.3357 15.6 31.156 15.6 27.4643C15.6 22.352 19.6706 18.2143 24.7 18.2143H27.3C32.3294 18.2143 36.4 22.352 36.4 27.4643Z" fill="black"/>
</svg>
