<svg width="52" height="46" viewBox="0 0 52 46" fill="none" xmlns="http://www.w3.org/2000/svg">
<path d="M19.875 3.8125C19.875 2.25684 21.1318 1 22.6875 1C36.6709 1 48 12.3291 48 26.3125C48 27.8682 46.7432 29.125 45.1875 29.125C43.6318 29.125 42.375 27.8682 42.375 26.3125C42.375 15.4404 33.5596 6.625 22.6875 6.625C21.1318 6.625 19.875 5.36816 19.875 3.8125ZM8.32617 20.3887L17.4756 29.5381L19.9717 27.042C19.9102 26.8135 19.875 26.5674 19.875 26.3125C19.875 24.7568 21.1318 23.5 22.6875 23.5C24.2432 23.5 25.5 24.7568 25.5 26.3125C25.5 27.8682 24.2432 29.125 22.6875 29.125C22.4326 29.125 22.1953 29.0898 21.958 29.0283L19.4619 31.5244L28.6113 40.6738C29.8857 41.9482 29.6484 44.084 27.9697 44.7432C25.8955 45.5518 23.6455 46 21.2812 46C11.1826 46 3 37.8174 3 27.7188C3 25.3545 3.44824 23.1045 4.26562 21.0303C4.9248 19.3604 7.06055 19.1143 8.33496 20.3887H8.32617ZM22.6875 9.4375C32.0039 9.4375 39.5625 16.9961 39.5625 26.3125C39.5625 27.8682 38.3057 29.125 36.75 29.125C35.1943 29.125 33.9375 27.8682 33.9375 26.3125C33.9375 20.0986 28.9014 15.0625 22.6875 15.0625C21.1318 15.0625 19.875 13.8057 19.875 12.25C19.875 10.6943 21.1318 9.4375 22.6875 9.4375Z" fill="black"/>
</svg>
