<svg width="53" height="46" viewBox="0 0 53 46" fill="none" xmlns="http://www.w3.org/2000/svg">
<path d="M23.6326 44.8549L4.92734 27.1314C4.49258 26.7217 4.07852 26.2804 3.69551 25.8287H12.7014C15.0408 25.8287 17.1525 24.3999 18.0531 22.2041L19.14 19.5566L24.2434 31.0606C24.6367 31.9536 25.4959 32.5314 26.4586 32.5419C27.4213 32.5524 28.3012 32.0166 28.7359 31.1447L33.125 22.2251L33.301 22.5823C34.2844 24.5785 36.2926 25.8392 38.4871 25.8392H49.3045C48.9215 26.2909 48.5074 26.7322 48.0727 27.1419L29.3674 44.8549C28.591 45.5903 27.5662 46 26.5 46C25.4338 46 24.409 45.5903 23.6326 44.8549ZM52.1408 20.7858H38.4768C38.1662 20.7858 37.8764 20.6072 37.7314 20.3236L35.3299 15.4593C34.9055 14.6084 34.0463 14.0621 33.1043 14.0621C32.1623 14.0621 31.3031 14.5979 30.8787 15.4593L26.5932 24.1582L21.3139 12.192C20.9102 11.278 19.9992 10.6897 19.0158 10.7107C18.0324 10.7317 17.1422 11.3305 16.7592 12.2655L13.4674 20.2815C13.3432 20.5967 13.0326 20.7963 12.7014 20.7963L1.65625 20.7858C1.38711 20.7858 1.13867 20.8279 0.900586 20.9014C0.310547 19.231 0 17.445 0 15.6274V15.0181C0 7.67447 5.22754 1.41295 12.3598 0.204771C17.0801 -0.593678 21.8832 0.971702 25.2578 4.39663L26.5 5.65733L27.7422 4.39663C31.1168 0.971702 35.9199 -0.593678 40.6402 0.204771C47.7725 1.41295 53 7.67447 53 15.0181V15.6274C53 17.4029 52.7102 19.1469 52.1408 20.7858Z" fill="black"/>
</svg>
