<svg width="52" height="46" viewBox="0 0 52 46" fill="none" xmlns="http://www.w3.org/2000/svg">
<path d="M16.9015 30.875C26.2374 30.875 33.802 24.4109 33.802 16.4375C33.802 8.46406 26.2374 2 16.9015 2C7.56552 2 0.000889266 8.46406 0.000889266 16.4375C0.000889266 19.6039 1.1953 22.5324 3.2185 24.9195C2.93411 25.6906 2.5116 26.3715 2.06471 26.9457C1.6747 27.4543 1.27656 27.848 0.984048 28.1187C0.837793 28.25 0.715914 28.3566 0.634661 28.4223C0.594034 28.4551 0.561533 28.4797 0.545283 28.4879L0.529032 28.5043C0.082142 28.8406 -0.112865 29.4312 0.0658915 29.9645C0.244648 30.4977 0.740289 30.875 1.30093 30.875C3.07224 30.875 4.8598 30.4156 6.34673 29.8496C7.09425 29.5625 7.79303 29.2426 8.3943 28.9145C10.8969 30.1613 13.7976 30.875 16.9015 30.875ZM36.4021 16.4375C36.4021 25.6496 28.35 32.5895 18.8109 33.418C20.7853 39.5211 27.3343 44 35.1021 44C38.2059 44 41.1067 43.2863 43.6092 42.0395C44.2186 42.3676 44.9093 42.6875 45.6568 42.9746C47.1437 43.5406 48.9313 44 50.7026 44C51.2632 44 51.767 43.6309 51.9376 43.0895C52.1083 42.548 51.9214 41.9574 51.4664 41.6211L51.4501 41.6047C51.4339 41.5883 51.4014 41.5719 51.3608 41.5391C51.2795 41.4734 51.1576 41.375 51.0114 41.2355C50.7189 40.9648 50.3207 40.5711 49.9307 40.0625C49.4838 39.4883 49.0613 38.7992 48.7769 38.0363C50.8001 35.6574 51.9945 32.7289 51.9945 29.5543C51.9945 21.9418 45.0962 15.6992 36.3452 15.1578C36.3777 15.5762 36.394 16.0027 36.394 16.4293L36.4021 16.4375Z" fill="black"/>
</svg>
